# xmcd
#
# Track frame offsets:
#	150
#	8882
#	26709
#	41610
#	59281
#	75138
#	93677
#	109623
#	128036
#	142225
#	160662
#	172702
#	190526
#	205886
#
# Disc length: 3010 seconds
#
# Revision: 2
# Processed by: cddbd v1.5.2PL0 Copyright (c) Steve Scherf et al.
# Submitted via: audiograbber 1.83.01
#
DISCID=aa0bc00e
DTITLE=Victoria Shaw - Old Friends New Memories
DYEAR=1999
DGENRE=Country
TTITLE0=That's How Much I Love You (with Sean Altman)
TTITLE1=Tripped (with Amy Powers and Peter Zizzo)
TTITLE2=The Other Woman (with Skip Ewing)
TTITLE3=Too Busy Being In Love (with Gary Burr)
TTITLE4=Crying Time
TTITLE5=The Man Who Lived Here (with Gary Burr)
TTITLE6=Every Time We Say Goodbye (with Desmond Child)
TTITLE7=Keeps Bringing Me Back (with I. Erningpraja and S. McClintock and E. Ade and 
TTITLE7=A. Hehanussa)
TTITLE8=She's Every Woman (with Garth Brooks)
TTITLE9=So Many Miracles (with Gary Burr)
TTITLE10=Waikiki Cowboy (with Gary Burr)
TTITLE11=I Love The Way You Love Me (with Chuck Cannon)
TTITLE12=Almost Mine (with Cliff Downs and David Pack)
TTITLE13=The River (with Garth Brooks)
EXTD=
EXTT0=
EXTT1=
EXTT2=
EXTT3=
EXTT4=
EXTT5=
EXTT6=
EXTT7=
EXTT8=
EXTT9=
EXTT10=
EXTT11=
EXTT12=
EXTT13=
PLAYORDER=
